<svg width="35" height="22" viewBox="0 0 35 22" fill="none" xmlns="http://www.w3.org/2000/svg">
<path d="M1 13.7539C1.13234 9.77177 2.23963 6.54652 4.74977 3.90571C6.57171 1.99042 8.80613 0.994702 11.456 1.00515C15.6116 1.01635 19.7643 0.971563 23.9228 1.03426C26.3175 1.07009 28.324 2.13373 29.9952 3.84227C31.912 5.8016 33.023 8.19236 33.5296 10.8772C33.9259 12.9754 33.9097 15.0683 33.1619 17.0971C32.337 19.3415 30.8474 20.8956 28.4836 21.4263C26.9263 21.7741 25.4095 21.4882 23.9934 20.8082C22.9825 20.3172 22.0073 19.7537 21.0752 19.1221C19.8437 18.2958 18.5408 17.8129 17.0534 17.8957C15.8226 17.9644 14.7293 18.407 13.7345 19.1296C12.6382 19.9252 11.481 20.6104 10.2053 21.0613C8.15984 21.7831 6.16144 21.8137 4.27186 20.5746C2.67858 19.5296 1.77789 17.9816 1.35365 16.1514C1.14705 15.2564 1.08088 14.3219 1 13.7539ZM32.3951 13.4591C32.3664 13.0769 32.3421 12.694 32.3076 12.3118C32.1039 10.0606 31.3856 7.99158 30.0886 6.15167C28.3564 3.69448 26.0447 2.37706 22.9979 2.41513C19.1239 2.46439 15.2484 2.42558 11.3743 2.42856C9.5752 2.42856 7.92382 2.95926 6.57979 4.16024C3.14104 7.22949 1.92715 11.1273 2.68298 15.6625C2.90356 16.9664 3.51087 18.1256 4.53139 18.9989C6.021 20.2738 7.7106 20.3738 9.49358 19.8006C10.8111 19.3774 11.9699 18.6496 13.0963 17.8547C14.7506 16.6865 16.5792 16.2365 18.5827 16.5544C19.8275 16.7522 20.9282 17.2777 21.945 18.0159C23.0523 18.8198 24.2294 19.4908 25.5477 19.8752C28.3314 20.6881 30.7217 19.4938 31.7907 16.7634C32.2054 15.7043 32.362 14.5951 32.3936 13.4591H32.3951Z" fill="#1F1F26" stroke="#1F1F26" stroke-width="0.5"/>
<path d="M9.05311 12.5401C9.05311 13.3149 9.05973 14.0426 9.05311 14.7711C9.04723 15.2242 8.79872 15.5026 8.41198 15.525C7.97083 15.5511 7.66056 15.2563 7.65394 14.7704C7.64512 14.0419 7.65394 13.3134 7.65394 12.5401C6.9084 12.5401 6.19153 12.5446 5.47467 12.5401C5.0519 12.5401 4.76074 12.299 4.71369 11.943C4.65266 11.4727 4.93425 11.1346 5.43128 11.1219C6.15109 11.1077 6.8709 11.1219 7.65394 11.1219V9.92767C7.65394 9.58059 7.64806 9.23425 7.65394 8.88717C7.6635 8.43335 7.9723 8.09896 8.36566 8.10344C8.75902 8.10792 9.04576 8.4132 9.05238 8.86329C9.06267 9.59253 9.05238 10.3225 9.05238 11.1175H10.0817C10.4854 11.1175 10.8905 11.11 11.2919 11.1234C11.7287 11.1384 12.0331 11.4436 12.0272 11.8362C12.0213 12.2289 11.6993 12.5341 11.2736 12.5401C10.556 12.5468 9.83762 12.5401 9.05311 12.5401Z" fill="#1F1F26" stroke="#1F1F26" stroke-width="0.5"/>
<path d="M25.5588 11.8229C24.2897 11.7953 23.2795 10.7428 23.3075 9.47765C23.3369 8.16098 24.3787 7.16377 25.6926 7.19288C26.9241 7.2205 27.9219 8.3125 27.8873 9.59559C27.8513 10.8436 26.8021 11.849 25.5588 11.8229ZM25.5823 10.3957C25.8167 10.3999 26.0432 10.3098 26.2124 10.1451C26.3815 9.98037 26.4796 9.75437 26.4852 9.51647C26.4789 9.27921 26.3833 9.0534 26.2182 8.88543C26.053 8.71746 25.8307 8.62009 25.597 8.61331C25.3688 8.61672 25.1508 8.70975 24.9888 8.87287C24.8267 9.03598 24.7333 9.2565 24.728 9.4881C24.7218 9.60553 24.7394 9.72299 24.7797 9.83325C24.8199 9.94351 24.882 10.0442 24.962 10.1293C25.042 10.2143 25.1384 10.2818 25.245 10.3276C25.3517 10.3734 25.4665 10.3966 25.5823 10.3957Z" fill="#1F1F26" stroke="#1F1F26" stroke-width="0.5"/>
<path d="M22.8677 12.0146C23.1694 12.0071 23.4696 12.0606 23.7507 12.1719C24.0319 12.2833 24.2884 12.4503 24.5054 12.6633C24.7224 12.8763 24.8954 13.131 25.0145 13.4125C25.1336 13.694 25.1964 13.9968 25.1991 14.3032C25.2018 14.6095 25.1445 14.9134 25.0304 15.1971C24.9164 15.4808 24.7479 15.7386 24.5347 15.9555C24.3216 16.1724 24.0681 16.3441 23.789 16.4607C23.5098 16.5772 23.2106 16.6361 22.9088 16.6342C21.6155 16.6394 20.5869 15.6183 20.5847 14.327C20.5849 14.0229 20.6441 13.7219 20.759 13.4411C20.8738 13.1603 21.0421 12.9052 21.2541 12.6905C21.4661 12.4757 21.7178 12.3055 21.9946 12.1895C22.2715 12.0736 22.5682 12.0141 22.8677 12.0146ZM22.0096 14.3158C22.0061 14.433 22.0257 14.5498 22.0672 14.6593C22.1088 14.7687 22.1715 14.8686 22.2517 14.9531C22.3318 15.0376 22.4278 15.105 22.5339 15.1513C22.6401 15.1976 22.7543 15.2219 22.8699 15.2227C23.103 15.2214 23.3265 15.1282 23.4932 14.9628C23.6599 14.7973 23.7567 14.5725 23.7632 14.336C23.763 14.0994 23.6714 13.8724 23.5081 13.7038C23.3447 13.5352 23.1227 13.4384 22.8897 13.4343C22.7743 13.4313 22.6595 13.4519 22.5522 13.495C22.4448 13.5381 22.3471 13.6027 22.265 13.685C22.1828 13.7673 22.1178 13.8656 22.074 13.974C22.0301 14.0824 22.0082 14.1986 22.0096 14.3158Z" fill="#1F1F26" stroke="#1F1F26" stroke-width="0.5"/>
<path d="M28.3342 12.0154C28.6335 12.0156 28.9297 12.0758 29.206 12.1926C29.4822 12.3094 29.733 12.4805 29.9439 12.696C30.1549 12.9115 30.3217 13.1672 30.435 13.4484C30.5483 13.7296 30.6057 14.0307 30.6039 14.3345C30.6039 15.6258 29.5746 16.6424 28.2798 16.6357C27.9701 16.6494 27.661 16.5988 27.3712 16.4871C27.0814 16.3754 26.8171 16.2048 26.5945 15.9858C26.3719 15.7669 26.1956 15.5041 26.0764 15.2136C25.9573 14.9231 25.8977 14.611 25.9014 14.2964C25.9051 13.9817 25.972 13.6711 26.098 13.3836C26.224 13.0961 26.4064 12.8377 26.6341 12.6242C26.8618 12.4107 27.13 12.2466 27.4224 12.1419C27.7147 12.0372 28.0249 11.9942 28.3342 12.0154ZM28.3254 13.4336C28.2099 13.4311 28.0951 13.4521 27.9878 13.4955C27.8804 13.5388 27.7827 13.6035 27.7005 13.6859C27.6182 13.7682 27.5531 13.8664 27.5089 13.9748C27.4646 14.0831 27.4423 14.1993 27.4431 14.3166C27.4408 14.4338 27.4613 14.5504 27.5036 14.6595C27.5459 14.7686 27.6091 14.8681 27.6895 14.9523C27.7699 15.0365 27.8659 15.1037 27.972 15.15C28.0782 15.1963 28.1923 15.2207 28.3077 15.222C28.5417 15.2242 28.767 15.1319 28.934 14.9655C29.101 14.799 29.196 14.5721 29.1981 14.3345C29.2003 14.097 29.1094 13.8683 28.9454 13.6987C28.7815 13.5292 28.5579 13.4328 28.3239 13.4306L28.3254 13.4336Z" fill="#1F1F26" stroke="#1F1F26" stroke-width="0.5"/>
</svg>
