<svg width="33" height="23" viewBox="0 0 33 23" fill="none" xmlns="http://www.w3.org/2000/svg">
<path d="M22.8209 0.010511C23.4197 0.206475 23.9346 0.597586 24.2824 1.12066C25.1999 2.21964 26.1292 3.30096 27.0408 4.39995C28.1123 5.69288 29.166 6.99171 30.2257 8.29053C30.6874 8.87826 31.1609 9.40715 31.6049 9.98313C32.2562 10.8295 32.056 11.5414 31.4715 12.2597C30.8871 12.978 30.1608 13.8259 29.5055 14.6149C28.8502 15.4038 28.0295 16.3459 27.3093 17.2232C26.7189 17.918 26.2053 18.6303 25.6327 19.3133C24.9773 20.1023 24.3339 20.8971 23.6253 21.6273C23.4516 21.7756 23.2472 21.8841 23.0266 21.945C22.8061 22.006 22.5748 22.0179 22.3491 21.98C22.1235 21.9421 21.9089 21.8552 21.7207 21.7256C21.5325 21.596 21.3753 21.4267 21.2601 21.2299C21.0468 20.8763 20.9624 20.4604 21.0212 20.0521C21.08 19.6438 21.2783 19.2682 21.5828 18.9884C22.4271 18.0168 23.2359 17.0159 24.0624 16.0444C24.889 15.0729 25.751 14.0367 26.5893 13.0299C26.675 12.9059 26.7519 12.776 26.8194 12.6414L1.91938 12.669C1.47016 12.7339 1.01304 12.6249 0.642137 12.3645C0.477244 12.2486 0.33147 12.1079 0.210095 11.9474C0.0532268 11.6363 -0.0124067 11.2876 0.0206657 10.9411C0.0537381 10.5947 0.184182 10.2644 0.3971 9.98834C0.683914 9.75629 1.01582 9.5857 1.37199 9.48726C1.58157 9.44149 1.79743 9.4313 2.01043 9.45714L26.8395 9.42959L25.2412 7.47842C24.665 6.78102 24.0869 6.08362 23.5068 5.38622L22.4826 4.15207C22.0327 3.61139 21.577 3.0766 21.1389 2.53003C20.9368 2.03 20.9361 1.47168 21.1372 0.971206C21.2658 0.742408 21.4392 0.541614 21.6472 0.380727C21.8551 0.219838 22.0935 0.102133 22.348 0.0345704L22.8209 0.010511Z" fill="white"/>
</svg>
